<?xml version="1.0" encoding="UTF-8" standalone="no"?>
<!DOCTYPE svg PUBLIC "-//W3C//DTD SVG 1.1//EN"
 "http://www.w3.org/Graphics/SVG/1.1/DTD/svg11.dtd">
<!-- Generated by graphviz version 2.43.0 (0)
 -->
<!-- Title: %3 Pages: 1 -->
<svg width="685pt" height="165pt"
 viewBox="0.00 0.00 685.00 164.74" xmlns="http://www.w3.org/2000/svg" xmlns:xlink="http://www.w3.org/1999/xlink">
<g id="graph0" class="graph" transform="scale(1 1) rotate(0) translate(36 128.74)">
<title>%3</title>
<polygon fill="dimgray" stroke="transparent" points="-36,36 -36,-128.74 649,-128.74 649,36 -36,36"/>
<text text-anchor="middle" x="306.5" y="-77.54" font-family="Helvetica,sans-Serif" font-size="14.00">Sweep&#39;s Plan &amp; Progress</text>
<!-- start -->
<g id="node1" class="node">
<title>start</title>
</g>
<!-- f5d7016a&#45;3c25&#45;430b&#45;860d&#45;2fd03114bdfb -->
<g id="node3" class="node">
<title>f5d7016a&#45;3c25&#45;430b&#45;860d&#45;2fd03114bdfb</title>
<ellipse fill="#0ee832" stroke="black" cx="303.5" cy="-26.87" rx="251.05" ry="26.74"/>
<text text-anchor="middle" x="303.5" y="-30.67" font-family="Helvetica,sans-Serif" font-size="14.00">✓ Create</text>
<text text-anchor="middle" x="303.5" y="-15.67" font-family="Helvetica,sans-Serif" font-size="14.00">src/utils/inventory/android&#45;health&#45;connect.test.ts</text>
</g>
<!-- start&#45;&gt;f5d7016a&#45;3c25&#45;430b&#45;860d&#45;2fd03114bdfb -->
<g id="edge1" class="edge">
<title>start&#45;&gt;f5d7016a&#45;3c25&#45;430b&#45;860d&#45;2fd03114bdfb</title>
<path fill="none" stroke="black" d="M1.37,-26.87C5.07,-26.87 20.36,-26.87 42.23,-26.87"/>
<polygon fill="black" stroke="black" points="42.36,-30.37 52.36,-26.87 42.36,-23.37 42.36,-30.37"/>
<text text-anchor="middle" x="26.74" y="-33.67" font-family="Helvetica,sans-Serif" font-size="14.00">Start</text>
</g>
<!-- end -->
<g id="node2" class="node">
<title>end</title>
</g>
<!-- f5d7016a&#45;3c25&#45;430b&#45;860d&#45;2fd03114bdfb&#45;&gt;end -->
<g id="edge2" class="edge">
<title>f5d7016a&#45;3c25&#45;430b&#45;860d&#45;2fd03114bdfb&#45;&gt;end</title>
<path fill="none" stroke="black" d="M554.74,-26.87C575.06,-26.87 591.64,-26.87 601.74,-26.87"/>
<polygon fill="black" stroke="black" points="601.89,-30.37 611.89,-26.87 601.89,-23.37 601.89,-30.37"/>
<text text-anchor="middle" x="583.26" y="-33.67" font-family="Helvetica,sans-Serif" font-size="14.00">Finish</text>
</g>
</g>
</svg>
